<svg version="1.1" viewBox="0.0 0.0 800.0 600.0" fill="none" stroke="none" stroke-linecap="square" stroke-miterlimit="10" xmlns:xlink="http://www.w3.org/1999/xlink" xmlns="http://www.w3.org/2000/svg"><clipPath id="p.0"><path d="m0 0l800.0 0l0 600.0l-800.0 0l0 -600.0z" clip-rule="nonzero"/></clipPath><g clip-path="url(#p.0)"><path fill="#000000" fill-opacity="0.0" d="m0 0l800.0 0l0 600.0l-800.0 0z" fill-rule="evenodd"/><defs><radialGradient id="p.1" gradientUnits="userSpaceOnUse" gradientTransform="matrix(20.597742069131183 0.0 0.0 20.597742069131183 0.0 0.0)" spreadMethod="pad" cx="19.419616727306572" cy="14.564680679616808" fx="19.419616727306572" fy="14.564680679616808" r="20.597742080688477"><stop offset="0.0" stop-color="#db0000"/><stop offset="1.0" stop-color="#540303"/></radialGradient></defs><path fill="url(#p.1)" d="m99.99819 -0.0025270341l600.00415 0l0 600.0041l-600.00415 0z" fill-rule="evenodd"/><path stroke="#660000" stroke-width="3.0" stroke-linejoin="round" stroke-linecap="butt" d="m99.99819 -0.0025270341l600.00415 0l0 600.0041l-600.00415 0z" fill-rule="evenodd"/><path fill="#00ff00" d="m632.0422 54.668137l0 0c0 -12.2368965 9.919983 -22.156864 22.15686 -22.156864l0 0c5.876404 0 11.512085 2.3343773 15.667297 6.4895973c4.1552124 4.155216 6.489563 9.790901 6.489563 15.667267l0 0c0 12.2369 -9.919922 22.15686 -22.15686 22.15686l0 0c-12.236877 0 -22.15686 -9.91996 -22.15686 -22.15686z" fill-rule="evenodd"/><path stroke="#6aa84f" stroke-width="2.0" stroke-linejoin="round" stroke-linecap="butt" d="m632.0422 54.668137l0 0c0 -12.2368965 9.919983 -22.156864 22.15686 -22.156864l0 0c5.876404 0 11.512085 2.3343773 15.667297 6.4895973c4.1552124 4.155216 6.489563 9.790901 6.489563 15.667267l0 0c0 12.2369 -9.919922 22.15686 -22.15686 22.15686l0 0c-12.236877 0 -22.15686 -9.91996 -22.15686 -22.15686z" fill-rule="evenodd"/><defs><radialGradient id="p.2" gradientUnits="userSpaceOnUse" gradientTransform="matrix(8.107224903534066 0.0 0.0 8.107224903534066 0.0 0.0)" spreadMethod="pad" cx="76.52347507520196" cy="45.10358458664149" fx="76.52347507520196" fy="45.10358458664149" r="8.107224464416504"><stop offset="0.0" stop-color="#4d4d4d"/><stop offset="1.0" stop-color="#000000"/></radialGradient></defs><path fill="url(#p.2)" d="m569.5111 324.0586l87.894775 0l13.869019 13.869049l0 69.34357l0 0l-87.894714 0l-13.86908 -13.869049l0 -69.34357z" fill-rule="evenodd"/><path stroke="#000000" stroke-width="1.0" stroke-linejoin="round" stroke-linecap="butt" d="m569.5111 324.0586l87.894775 0l13.869019 13.869049l0 69.34357l0 0l-87.894714 0l-13.86908 -13.869049l0 -69.34357z" fill-rule="evenodd"/><path fill="#ffffff" d="m606.5805 377.38492l0 -22.90625l4.625 0l0 22.90625l-4.625 0zm9.015625 -22.90625l8.453125 0q2.859375 0 4.359375 0.4375q2.015625 0.59375 3.453125 2.109375q1.4375 1.515625 2.1875 3.71875q0.75 2.1875 0.75 5.40625q0 2.828125 -0.703125 4.875q-0.859375 2.5 -2.453125 4.046875q-1.203125 1.171875 -3.25 1.828125q-1.53125 0.484375 -4.09375 0.484375l-8.703125 0l0 -22.90625zm4.625 3.875l0 15.171875l3.453125 0q1.9375 0 2.796875 -0.21875q1.125 -0.28125 1.859375 -0.953125q0.75 -0.671875 1.21875 -2.203125q0.46875 -1.546875 0.46875 -4.203125q0 -2.65625 -0.46875 -4.078125q-0.46875 -1.421875 -1.3125 -2.21875q-0.84375 -0.796875 -2.140625 -1.078125q-0.96875 -0.21875 -3.796875 -0.21875l-2.078125 0z" fill-rule="nonzero"/><defs><radialGradient id="p.3" gradientUnits="userSpaceOnUse" gradientTransform="matrix(15.610256167180182 0.0 0.0 15.610256167180182 0.0 0.0)" spreadMethod="pad" cx="23.066531803510486" cy="4.944166696231672" fx="23.066531803510486" fy="4.944166696231672" r="15.61025619506836"><stop offset="0.0" stop-color="#4d4d4d"/><stop offset="1.0" stop-color="#000000"/></radialGradient></defs><path fill="url(#p.3)" d="m141.56041 21.226954l455.67938 0c0.0010375977 0 0.0020751953 4.15802E-4 0.0028076172 0.0011577606c7.324219E-4 7.4005127E-4 0.001159668 0.001745224 0.001159668 0.0027942657l-0.003967285 93.25027c0 10.300827 -8.350464 18.65129 -18.651245 18.65129l-455.67944 0l0 0c-0.0021820068 0 -0.0039520264 -0.0017700195 -0.0039520264 -0.0039520264l0.0039520264 -93.25026l0 0c0 -10.300825 8.350464 -18.651293 18.65129 -18.651293z" fill-rule="evenodd"/><path stroke="#000000" stroke-width="1.0" stroke-linejoin="round" stroke-linecap="butt" d="m141.56041 21.226954l455.67938 0c0.0010375977 0 0.0020751953 4.15802E-4 0.0028076172 0.0011577606c7.324219E-4 7.4005127E-4 0.001159668 0.001745224 0.001159668 0.0027942657l-0.003967285 93.25027c0 10.300827 -8.350464 18.65129 -18.651245 18.65129l-455.67944 0l0 0c-0.0021820068 0 -0.0039520264 -0.0017700195 -0.0039520264 -0.0039520264l0.0039520264 -93.25026l0 0c0 -10.300825 8.350464 -18.651293 18.65129 -18.651293z" fill-rule="evenodd"/><path fill="#ffffff" d="m239.89673 67.579704l0 -28.640625l20.703125 0l0 3.390625l-16.921875 0l0 8.765625l15.84375 0l0 3.359375l-15.84375 0l0 9.75l17.578125 0l0 3.375l-21.359375 0zm26.554688 0l0 -28.640625l3.890625 0l15.03125 22.484375l0 -22.484375l3.640625 0l0 28.640625l-3.890625 0l-15.03125 -22.5l0 22.5l-3.640625 0zm49.35547 -10.046875l3.796875 0.96875q-1.203125 4.65625 -4.296875 7.109375q-3.09375 2.453125 -7.5625 2.453125q-4.625 0 -7.53125 -1.875q-2.90625 -1.890625 -4.421875 -5.46875q-1.5 -3.578125 -1.5 -7.671875q0 -4.46875 1.703125 -7.796875q1.703125 -3.34375 4.859375 -5.0625q3.15625 -1.734375 6.953125 -1.734375q4.296875 0 7.21875 2.1875q2.9375 2.1875 4.078125 6.15625l-3.71875 0.875q-1.0 -3.125 -2.90625 -4.546875q-1.890625 -1.421875 -4.75 -1.421875q-3.3125 0 -5.53125 1.578125q-2.203125 1.578125 -3.109375 4.25q-0.890625 2.65625 -0.890625 5.5q0 3.640625 1.0625 6.375q1.0625 2.71875 3.296875 4.078125q2.25 1.34375 4.875 1.34375q3.1875 0 5.390625 -1.828125q2.203125 -1.84375 2.984375 -5.46875zm8.511719 10.046875l0 -28.640625l12.703125 0q3.828125 0 5.8125 0.78125q2.0 0.765625 3.1875 2.71875q1.1875 1.953125 1.1875 4.3125q0 3.046875 -1.96875 5.140625q-1.96875 2.09375 -6.09375 2.65625q1.5 0.71875 2.28125 1.421875q1.671875 1.53125 3.15625 3.8125l4.96875 7.796875l-4.765625 0l-3.78125 -5.953125q-1.65625 -2.578125 -2.734375 -3.9375q-1.078125 -1.375 -1.9375 -1.921875q-0.84375 -0.546875 -1.71875 -0.765625q-0.640625 -0.140625 -2.109375 -0.140625l-4.390625 0l0 12.71875l-3.796875 0zm3.796875 -16.0l8.140625 0q2.59375 0 4.0625 -0.53125q1.46875 -0.546875 2.21875 -1.71875q0.765625 -1.1875 0.765625 -2.578125q0 -2.03125 -1.46875 -3.328125q-1.46875 -1.3125 -4.65625 -1.3125l-9.0625 0l0 9.46875zm33.10547 16.0l0 -12.125l-11.03125 -16.515625l4.609375 0l5.640625 8.640625q1.5625 2.421875 2.90625 4.84375q1.296875 -2.25 3.125 -5.0625l5.546875 -8.421875l4.421875 0l-11.4375 16.515625l0 12.125l-3.78125 0zm18.617188 0l0 -28.640625l10.796875 0q2.84375 0 4.359375 0.28125q2.109375 0.34375 3.53125 1.34375q1.421875 0.984375 2.28125 2.765625q0.875 1.765625 0.875 3.890625q0 3.65625 -2.328125 6.1875q-2.3125 2.53125 -8.390625 2.53125l-7.34375 0l0 11.640625l-3.78125 0zm3.78125 -15.015625l7.40625 0q3.671875 0 5.203125 -1.359375q1.546875 -1.375 1.546875 -3.859375q0 -1.796875 -0.90625 -3.078125q-0.90625 -1.28125 -2.390625 -1.6875q-0.953125 -0.25 -3.53125 -0.25l-7.328125 0l0 10.234375zm30.179688 15.015625l0 -25.25l-9.4375 0l0 -3.390625l22.703125 0l0 3.390625l-9.484375 0l0 25.25l-3.78125 0zm17.230469 0l0 -28.640625l20.703125 0l0 3.390625l-16.921875 0l0 8.765625l15.84375 0l0 3.359375l-15.84375 0l0 9.75l17.578125 0l0 3.375l-21.359375 0zm26.601562 0l0 -28.640625l9.859375 0q3.34375 0 5.09375 0.421875q2.46875 0.5625 4.203125 2.046875q2.265625 1.90625 3.390625 4.890625q1.125 2.984375 1.125 6.8125q0 3.25 -0.765625 5.78125q-0.765625 2.515625 -1.953125 4.171875q-1.1875 1.640625 -2.609375 2.59375q-1.421875 0.9375 -3.421875 1.4375q-2.0 0.484375 -4.59375 0.484375l-10.328125 0zm3.78125 -3.375l6.109375 0q2.84375 0 4.453125 -0.53125q1.609375 -0.53125 2.5625 -1.484375q1.34375 -1.34375 2.09375 -3.625q0.765625 -2.28125 0.765625 -5.515625q0 -4.5 -1.484375 -6.90625q-1.46875 -2.40625 -3.578125 -3.234375q-1.53125 -0.578125 -4.90625 -0.578125l-6.015625 0l0 21.875z" fill-rule="nonzero"/><path fill="#ffffff" d="m264.1272 115.579704l0 -28.640625l5.703125 0l6.78125 20.28125q0.9375 2.828125 1.359375 4.234375q0.5 -1.5625 1.53125 -4.59375l6.859375 -19.921875l5.09375 0l0 28.640625l-3.65625 0l0 -23.96875l-8.3125 23.96875l-3.421875 0l-8.28125 -24.375l0 24.375l-3.65625 0zm33.523438 0l0 -28.640625l20.703125 0l0 3.390625l-16.921875 0l0 8.765625l15.84375 0l0 3.359375l-15.84375 0l0 9.75l17.578125 0l0 3.375l-21.359375 0zm25.304688 -9.203125l3.578125 -0.3125q0.25 2.15625 1.171875 3.53125q0.9375 1.375 2.890625 2.234375q1.953125 0.84375 4.390625 0.84375q2.171875 0 3.828125 -0.640625q1.65625 -0.65625 2.46875 -1.78125q0.8125 -1.125 0.8125 -2.453125q0 -1.34375 -0.78125 -2.34375q-0.78125 -1.015625 -2.578125 -1.6875q-1.15625 -0.453125 -5.109375 -1.390625q-3.9375 -0.953125 -5.515625 -1.796875q-2.046875 -1.078125 -3.0625 -2.671875q-1.0 -1.59375 -1.0 -3.5625q0 -2.171875 1.234375 -4.046875q1.234375 -1.890625 3.59375 -2.859375q2.359375 -0.984375 5.25 -0.984375q3.1875 0 5.609375 1.03125q2.4375 1.015625 3.75 3.015625q1.3125 1.984375 1.40625 4.515625l-3.640625 0.265625q-0.28125 -2.71875 -1.984375 -4.09375q-1.6875 -1.390625 -4.984375 -1.390625q-3.4375 0 -5.015625 1.265625q-1.5625 1.25 -1.5625 3.03125q0 1.546875 1.109375 2.53125q1.09375 1.0 5.703125 2.046875q4.625 1.046875 6.34375 1.828125q2.5 1.15625 3.6875 2.921875q1.203125 1.765625 1.203125 4.0625q0 2.296875 -1.3125 4.3125q-1.3125 2.015625 -3.765625 3.140625q-2.4375 1.125 -5.515625 1.125q-3.875 0 -6.515625 -1.125q-2.625 -1.140625 -4.125 -3.40625q-1.484375 -2.28125 -1.5625 -5.15625zm26.679688 0l3.578125 -0.3125q0.25 2.15625 1.171875 3.53125q0.9375 1.375 2.890625 2.234375q1.953125 0.84375 4.390625 0.84375q2.171875 0 3.828125 -0.640625q1.65625 -0.65625 2.46875 -1.78125q0.8125 -1.125 0.8125 -2.453125q0 -1.34375 -0.78125 -2.34375q-0.78125 -1.015625 -2.578125 -1.6875q-1.15625 -0.453125 -5.109375 -1.390625q-3.9375 -0.953125 -5.515625 -1.796875q-2.046875 -1.078125 -3.0625 -2.671875q-1.0 -1.59375 -1.0 -3.5625q0 -2.171875 1.234375 -4.046875q1.234375 -1.890625 3.59375 -2.859375q2.359375 -0.984375 5.25 -0.984375q3.1875 0 5.609375 1.03125q2.4375 1.015625 3.75 3.015625q1.3125 1.984375 1.40625 4.515625l-3.640625 0.265625q-0.28125 -2.71875 -1.984375 -4.09375q-1.6875 -1.390625 -4.984375 -1.390625q-3.4375 0 -5.015625 1.265625q-1.5625 1.25 -1.5625 3.03125q0 1.546875 1.109375 2.53125q1.09375 1.0 5.703125 2.046875q4.625 1.046875 6.34375 1.828125q2.5 1.15625 3.6875 2.921875q1.203125 1.765625 1.203125 4.0625q0 2.296875 -1.3125 4.3125q-1.3125 2.015625 -3.765625 3.140625q-2.4375 1.125 -5.515625 1.125q-3.875 0 -6.515625 -1.125q-2.625 -1.140625 -4.125 -3.40625q-1.484375 -2.28125 -1.5625 -5.15625zm24.820312 9.203125l11.0 -28.640625l4.078125 0l11.71875 28.640625l-4.3125 0l-3.34375 -8.671875l-11.96875 0l-3.140625 8.671875l-4.03125 0zm8.265625 -11.765625l9.703125 0l-2.984375 -7.921875q-1.359375 -3.609375 -2.03125 -5.9375q-0.546875 2.75 -1.546875 5.46875l-3.140625 8.390625zm34.960938 0.53125l0 -3.359375l12.125 -0.015625l0 10.625q-2.78125 2.21875 -5.75 3.34375q-2.96875 1.125 -6.09375 1.125q-4.21875 0 -7.671875 -1.796875q-3.453125 -1.8125 -5.21875 -5.234375q-1.75 -3.421875 -1.75 -7.640625q0 -4.171875 1.75 -7.796875q1.75 -3.625 5.03125 -5.375q3.28125 -1.765625 7.5625 -1.765625q3.109375 0 5.609375 1.015625q2.515625 1.0 3.9375 2.796875q1.421875 1.796875 2.171875 4.6875l-3.421875 0.9375q-0.640625 -2.1875 -1.609375 -3.4375q-0.953125 -1.25 -2.734375 -2.0q-1.765625 -0.75 -3.9375 -0.75q-2.59375 0 -4.5 0.796875q-1.890625 0.78125 -3.046875 2.078125q-1.15625 1.28125 -1.8125 2.828125q-1.09375 2.65625 -1.09375 5.75q0 3.828125 1.3125 6.40625q1.328125 2.578125 3.84375 3.828125q2.53125 1.25 5.359375 1.25q2.453125 0 4.796875 -0.9375q2.34375 -0.953125 3.5625 -2.03125l0 -5.328125l-8.421875 0zm17.800781 11.234375l0 -28.640625l20.703125 0l0 3.390625l-16.921875 0l0 8.765625l15.84375 0l0 3.359375l-15.84375 0l0 9.75l17.578125 0l0 3.375l-21.359375 0z" fill-rule="nonzero"/><path fill="#ff0000" d="m427.54037 295.17215l-133.66928 0l-66.834656 -66.834625l267.3386 0z" fill-rule="evenodd"/><path stroke="#980000" stroke-width="4.0" stroke-linejoin="round" stroke-linecap="butt" d="m427.54037 295.17215l-133.66928 0l-66.834656 -66.834625l267.3386 0z" fill-rule="evenodd"/><path fill="#4a86e8" d="m289.14105 298.20956l66.834656 115.811005l-24.48819 91.322845l-133.66928 -231.62204z" fill-rule="evenodd"/><path stroke="#0b5394" stroke-width="4.0" stroke-linejoin="round" stroke-linecap="butt" d="m289.14105 298.20956l66.834656 115.811005l-24.48819 91.322845l-133.66928 -231.62204z" fill-rule="evenodd"/><path fill="#00ff00" d="m364.1689 414.0202l66.834625 -115.811005l91.322815 -24.48819l-133.66925 231.62204z" fill-rule="evenodd"/><path stroke="#38761d" stroke-width="4.0" stroke-linejoin="round" stroke-linecap="butt" d="m364.1689 414.0202l66.834625 -115.811005l91.322815 -24.48819l-133.66925 231.62204z" fill-rule="evenodd"/><path fill="#efefef" d="m311.42114 309.46722l97.60629 0.04724121l-48.724396 84.58267z" fill-rule="evenodd"/><path stroke="#cccccc" stroke-width="4.0" stroke-linejoin="round" stroke-linecap="butt" d="m311.42114 309.46722l97.60629 0.04724121l-48.724396 84.58267z" fill-rule="evenodd"/><path fill="#000000" fill-opacity="0.0" d="m161.35185 217.58965l396.5984 0.25196838l-198.11023 343.55902z" fill-rule="evenodd"/><path stroke="#434343" stroke-width="16.0" stroke-linejoin="round" stroke-linecap="butt" d="m161.35185 217.58965l396.5984 0.25196838l-198.11023 343.55902z" fill-rule="evenodd"/></g></svg>